<svg width="36" height="36" viewBox="0 0 36 36" fill="none" xmlns="http://www.w3.org/2000/svg">
<path d="M18.374 0.386719C8.70669 0.386719 0.874023 8.21938 0.874023 17.8867C0.874023 27.5541 8.70669 35.3867 18.374 35.3867C28.0414 35.3867 35.874 27.5541 35.874 17.8867C35.874 8.21938 28.0414 0.386719 18.374 0.386719ZM26.9547 22.4805C27.2863 22.8121 27.2863 23.3484 26.9547 23.6801L24.1603 26.4674C23.8287 26.799 23.2924 26.799 22.9607 26.4674L18.374 21.8383L13.7803 26.4674C13.4486 26.799 12.9123 26.799 12.5807 26.4674L9.79338 23.673C9.46172 23.3414 9.46172 22.8051 9.79338 22.4734L14.4224 17.8867L9.79338 13.293C9.46172 12.9613 9.46172 12.425 9.79338 12.0934L12.5877 9.29902C12.9194 8.96736 13.4557 8.96736 13.7873 9.29902L18.374 13.9351L22.9678 9.30607C23.2994 8.97442 23.8357 8.97442 24.1674 9.30607L26.9617 12.1004C27.2934 12.4321 27.2934 12.9684 26.9617 13.3L22.3256 17.8867L26.9547 22.4805Z" fill="#FF0000"/>
</svg>
