<svg width="45" height="61" viewBox="0 0 45 61" fill="none" xmlns="http://www.w3.org/2000/svg">
<path d="M26.25 16.0723V0.134766H2.8125C1.25391 0.134766 0 1.38867 0 2.94727V57.3223C0 58.8809 1.25391 60.1348 2.8125 60.1348H42.1875C43.7461 60.1348 45 58.8809 45 57.3223V18.8848H29.0625C27.5156 18.8848 26.25 17.6191 26.25 16.0723ZM33.75 43.7285C33.75 44.502 33.1172 45.1348 32.3438 45.1348H12.6562C11.8828 45.1348 11.25 44.502 11.25 43.7285V42.791C11.25 42.0176 11.8828 41.3848 12.6562 41.3848H32.3438C33.1172 41.3848 33.75 42.0176 33.75 42.791V43.7285ZM33.75 36.2285C33.75 37.002 33.1172 37.6348 32.3438 37.6348H12.6562C11.8828 37.6348 11.25 37.002 11.25 36.2285V35.291C11.25 34.5176 11.8828 33.8848 12.6562 33.8848H32.3438C33.1172 33.8848 33.75 34.5176 33.75 35.291V36.2285ZM33.75 27.791V28.7285C33.75 29.502 33.1172 30.1348 32.3438 30.1348H12.6562C11.8828 30.1348 11.25 29.502 11.25 28.7285V27.791C11.25 27.0176 11.8828 26.3848 12.6562 26.3848H32.3438C33.1172 26.3848 33.75 27.0176 33.75 27.791ZM45 14.4199V15.1348H30V0.134766H30.7148C31.4648 0.134766 32.1797 0.427734 32.707 0.955078L44.1797 12.4395C44.707 12.9668 45 13.6816 45 14.4199Z" fill="#00326C"/>
</svg>
