<svg width="61" height="61" viewBox="0 0 61 61" fill="none" xmlns="http://www.w3.org/2000/svg">
<path d="M30.5 0.679688C13.9274 0.679688 0.5 14.1071 0.5 30.6797C0.5 47.2523 13.9274 60.6797 30.5 60.6797C47.0726 60.6797 60.5 47.2523 60.5 30.6797C60.5 14.1071 47.0726 0.679688 30.5 0.679688ZM45.2097 38.5547C45.7782 39.1232 45.7782 40.0426 45.2097 40.6111L40.4194 45.3894C39.8508 45.9579 38.9314 45.9579 38.3629 45.3894L30.5 37.4539L22.625 45.3894C22.0564 45.9579 21.1371 45.9579 20.5685 45.3894L15.7903 40.599C15.2218 40.0305 15.2218 39.1111 15.7903 38.5426L23.7258 30.6797L15.7903 22.8047C15.2218 22.2361 15.2218 21.3168 15.7903 20.7482L20.5806 15.9579C21.1492 15.3894 22.0685 15.3894 22.6371 15.9579L30.5 23.9055L38.375 15.97C38.9435 15.4015 39.8629 15.4015 40.4314 15.97L45.2218 20.7603C45.7903 21.3289 45.7903 22.2482 45.2218 22.8168L37.2742 30.6797L45.2097 38.5547Z" fill="#FF0000"/>
</svg>
