<svg width="20" height="26" viewBox="0 0 20 26" fill="none" xmlns="http://www.w3.org/2000/svg">
<path d="M11.8979 7.03906V0.398438H2.13232C1.48291 0.398438 0.960449 0.920898 0.960449 1.57031V24.2266C0.960449 24.876 1.48291 25.3984 2.13232 25.3984H18.5386C19.188 25.3984 19.7104 24.876 19.7104 24.2266V8.21094H13.0698C12.4253 8.21094 11.8979 7.68359 11.8979 7.03906ZM15.0229 18.5625C15.0229 18.8848 14.7593 19.1484 14.437 19.1484H6.23389C5.91162 19.1484 5.64795 18.8848 5.64795 18.5625V18.1719C5.64795 17.8496 5.91162 17.5859 6.23389 17.5859H14.437C14.7593 17.5859 15.0229 17.8496 15.0229 18.1719V18.5625ZM15.0229 15.4375C15.0229 15.7598 14.7593 16.0234 14.437 16.0234H6.23389C5.91162 16.0234 5.64795 15.7598 5.64795 15.4375V15.0469C5.64795 14.7246 5.91162 14.4609 6.23389 14.4609H14.437C14.7593 14.4609 15.0229 14.7246 15.0229 15.0469V15.4375ZM15.0229 11.9219V12.3125C15.0229 12.6348 14.7593 12.8984 14.437 12.8984H6.23389C5.91162 12.8984 5.64795 12.6348 5.64795 12.3125V11.9219C5.64795 11.5996 5.91162 11.3359 6.23389 11.3359H14.437C14.7593 11.3359 15.0229 11.5996 15.0229 11.9219ZM19.7104 6.35059V6.64844H13.4604V0.398438H13.7583C14.0708 0.398438 14.3687 0.520508 14.5884 0.740234L19.3687 5.52539C19.5884 5.74512 19.7104 6.04297 19.7104 6.35059Z" fill="#363636"/>
</svg>
