<svg width="60" height="61" viewBox="0 0 60 61" fill="none" xmlns="http://www.w3.org/2000/svg">
<path d="M35.625 6.55762C35.625 9.66426 33.1066 12.1826 30 12.1826C26.8934 12.1826 24.375 9.66426 24.375 6.55762C24.375 3.45098 26.8934 0.932617 30 0.932617C33.1066 0.932617 35.625 3.45098 35.625 6.55762ZM30 49.6826C26.8934 49.6826 24.375 52.201 24.375 55.3076C24.375 58.4143 26.8934 60.9326 30 60.9326C33.1066 60.9326 35.625 58.4143 35.625 55.3076C35.625 52.201 33.1066 49.6826 30 49.6826ZM54.375 25.3076C51.2684 25.3076 48.75 27.826 48.75 30.9326C48.75 34.0393 51.2684 36.5576 54.375 36.5576C57.4816 36.5576 60 34.0393 60 30.9326C60 27.826 57.4816 25.3076 54.375 25.3076ZM11.25 30.9326C11.25 27.826 8.73164 25.3076 5.625 25.3076C2.51836 25.3076 0 27.826 0 30.9326C0 34.0393 2.51836 36.5576 5.625 36.5576C8.73164 36.5576 11.25 34.0393 11.25 30.9326ZM12.7643 42.5433C9.65766 42.5433 7.1393 45.0617 7.1393 48.1683C7.1393 51.275 9.65766 53.7933 12.7643 53.7933C15.8709 53.7933 18.3893 51.275 18.3893 48.1683C18.3893 45.0618 15.8708 42.5433 12.7643 42.5433ZM47.2357 42.5433C44.1291 42.5433 41.6107 45.0617 41.6107 48.1683C41.6107 51.275 44.1291 53.7933 47.2357 53.7933C50.3423 53.7933 52.8607 51.275 52.8607 48.1683C52.8607 45.0618 50.3423 42.5433 47.2357 42.5433ZM12.7643 8.07191C9.65766 8.07191 7.1393 10.5903 7.1393 13.6969C7.1393 16.8036 9.65766 19.3219 12.7643 19.3219C15.8709 19.3219 18.3893 16.8036 18.3893 13.6969C18.3893 10.5903 15.8708 8.07191 12.7643 8.07191Z" fill="url(#paint0_angular_95_1048)"/>
<defs>
<radialGradient id="paint0_angular_95_1048" cx="0" cy="0" r="1" gradientUnits="userSpaceOnUse" gradientTransform="translate(30 30.9326) rotate(-26.0919) scale(126.367)">
<stop stop-color="#00326C" stop-opacity="0.35"/>
<stop offset="0.96875" stop-color="#00326C"/>
</radialGradient>
</defs>
</svg>
