<svg width="54" height="61" viewBox="0 0 54 61" fill="none" xmlns="http://www.w3.org/2000/svg">
<path d="M47.8311 26.7324H45.0186V18.2949C45.0186 8.47461 37.0264 0.482422 27.2061 0.482422C17.3857 0.482422 9.39355 8.47461 9.39355 18.2949V26.7324H6.58105C3.47559 26.7324 0.956055 29.252 0.956055 32.3574V54.8574C0.956055 57.9629 3.47559 60.4824 6.58105 60.4824H47.8311C50.9365 60.4824 53.4561 57.9629 53.4561 54.8574V32.3574C53.4561 29.252 50.9365 26.7324 47.8311 26.7324ZM35.6436 26.7324H18.7686V18.2949C18.7686 13.6426 22.5537 9.85742 27.2061 9.85742C31.8584 9.85742 35.6436 13.6426 35.6436 18.2949V26.7324Z" fill="#00326C"/>
</svg>
