<svg width="60" height="61" viewBox="0 0 60 61" fill="none" xmlns="http://www.w3.org/2000/svg">
<path d="M60 30.1348C60 46.7034 46.5686 60.1348 30 60.1348C13.4314 60.1348 0 46.7034 0 30.1348C0 13.5662 13.4314 0.134766 30 0.134766C46.5686 0.134766 60 13.5662 60 30.1348ZM26.5299 46.0195L48.788 23.7615C49.5438 23.0057 49.5438 21.7801 48.788 21.0243L46.0508 18.2872C45.295 17.5313 44.0695 17.5313 43.3136 18.2872L25.1613 36.4394L16.6864 27.9645C15.9306 27.2087 14.7051 27.2087 13.9492 27.9645L11.212 30.7016C10.4562 31.4574 10.4562 32.6829 11.212 33.4388L23.7927 46.0194C24.5486 46.7753 25.774 46.7753 26.5299 46.0195Z" fill="#008575"/>
</svg>
