<svg width="21" height="21" viewBox="0 0 21 21" fill="none" xmlns="http://www.w3.org/2000/svg">
<path d="M20.6856 17.5198L16.7914 13.6256C16.6157 13.4499 16.3774 13.3522 16.1274 13.3522H15.4908C16.5688 11.9735 17.2094 10.2393 17.2094 8.35272C17.2094 3.86488 13.573 0.228516 9.08514 0.228516C4.5973 0.228516 0.960938 3.86488 0.960938 8.35272C0.960938 12.8406 4.5973 16.4769 9.08514 16.4769C10.9717 16.4769 12.7059 15.8364 14.0847 14.7583V15.395C14.0847 15.645 14.1823 15.8832 14.3581 16.059L18.2522 19.9532C18.6194 20.3203 19.2131 20.3203 19.5763 19.9532L20.6817 18.8478C21.0488 18.4806 21.0488 17.8869 20.6856 17.5198ZM9.08514 13.3522C6.3237 13.3522 4.08563 11.1181 4.08563 8.35272C4.08563 5.59127 6.31979 3.35321 9.08514 3.35321C11.8466 3.35321 14.0847 5.58737 14.0847 8.35272C14.0847 11.1142 11.8505 13.3522 9.08514 13.3522Z" fill="#363636"/>
</svg>
