<svg width="69" height="61" viewBox="0 0 69 61" fill="none" xmlns="http://www.w3.org/2000/svg">
<path d="M50.5849 0.482537C40.7411 0.517693 32.831 8.62705 32.831 18.4708V26.7325H6.58104C3.47558 26.7325 0.956055 29.252 0.956055 32.3575V54.8574C0.956055 57.9629 3.47558 60.4824 6.58104 60.4824H47.831C50.9364 60.4824 53.456 57.9629 53.456 54.8574V32.3575C53.456 29.252 50.9364 26.7325 47.831 26.7325H42.206V18.4005C42.206 13.7599 45.9208 9.90439 50.5614 9.85752C55.2489 9.81064 59.081 13.6192 59.081 18.295V27.67C59.081 29.2286 60.3349 30.4825 61.8934 30.4825H65.6434C67.202 30.4825 68.4559 29.2286 68.4559 27.67V18.295C68.4559 8.45127 60.4286 0.447381 50.5849 0.482537Z" fill="#00326C"/>
</svg>
