<svg width="21" height="21" viewBox="0 0 21 21" fill="none" xmlns="http://www.w3.org/2000/svg">
<path d="M3.61892 3.82932C-0.287276 7.73552 -0.287276 14.0653 3.61892 17.9715C7.52511 21.8777 13.8549 21.8777 17.7611 17.9715C21.6672 14.0653 21.6672 7.73552 17.7611 3.82932C13.8549 -0.0768719 7.52511 -0.0768719 3.61892 3.82932ZM16.0132 9.28944C16.2813 9.28944 16.498 9.50614 16.498 9.77415L16.4951 12.0295C16.4951 12.2975 16.2784 12.5142 16.0104 12.5142L12.2867 12.4971L12.3009 16.2237C12.3009 16.4917 12.0842 16.7084 11.8162 16.7084L9.5609 16.7055C9.29288 16.7055 9.07619 16.4888 9.07619 16.2208L9.09329 12.4971L5.36673 12.5113C5.09871 12.5113 4.88202 12.2946 4.88202 12.0266V9.76845C4.88202 9.50043 5.09871 9.28374 5.36673 9.28374L9.09329 9.3037L9.07904 5.57713C9.07904 5.30911 9.29573 5.09242 9.56375 5.09242L11.8219 5.09242C12.0899 5.09242 12.3066 5.30911 12.3066 5.57713L12.2867 9.3037L16.0132 9.28944Z" fill="#00326C"/>
</svg>
